<svg width="42" height="52" viewBox="0 0 42 52" fill="none" xmlns="http://www.w3.org/2000/svg">
<path fill-rule="evenodd" clip-rule="evenodd" d="M34.7068 18.1225C35.4764 11.5574 36.2041 5.34979 41.9997 1.26808e-09C15.5072 -0.000117229 7.84682 8.128 3.9998 13.9999C-4.54175 27.0373 3.08506 39.6704 4.7106 42.0864C3.76149 43.9699 2.8453 45.8228 1.96853 47.596C1.28756 48.9732 0.630371 50.3023 0 51.5603L0.881027 51.9999C1.51647 50.7318 2.17882 49.3919 2.86491 48.0041C3.71305 46.2884 4.59746 44.4993 5.51217 42.6817C8.10646 43.5486 19.9646 46.8651 27.5 37.9999C33.1568 31.3449 33.9519 24.5617 34.7068 18.1225Z" fill="#F0EBFF"/>
</svg>
