<svg width="46" height="52" viewBox="0 0 46 52" fill="none" xmlns="http://www.w3.org/2000/svg">
<path fill-rule="evenodd" clip-rule="evenodd" d="M19 0H27V3H24V6.02135C27.8152 6.18456 31.3896 7.27718 34.5027 9.07856C36.354 7.14759 40.7551 9.24586 39.2635 12.7365C39.2309 12.704 39.1983 12.6716 39.1656 12.6393C43.3853 16.8089 46 22.5991 46 29C46 41.7025 35.7025 52 23 52C10.2975 52 0 41.7025 0 29C0 22.3297 2.83949 16.3226 7.37567 12.1215C7.1588 12.3222 6.94571 12.5272 6.73652 12.7364C4.70719 9.70748 9.31989 6.58169 11.4975 9.07845C14.6105 7.27714 18.1849 6.18456 22 6.02135V3H19V0Z" fill="#F0EBFF"/>
</svg>
